<svg width="65" height="64" viewBox="0 0 65 64" fill="none" xmlns="http://www.w3.org/2000/svg">
<path d="M45.0054 19.2H51.4054V12.8H45.0054V19.2Z" fill="#452EC2"/>
<path d="M38.6054 25.6H45.0054V19.2H38.6054V25.6Z" fill="#452EC2"/>
<path d="M38.6054 38.4V25.6H25.8054V19.2H19.4054V12.8H13.0054V19.2H19.4054V25.6H25.8054V38.4H19.4054V44.8H13.0054V51.2H19.4054V44.8H25.8054V38.4H38.6054Z" fill="#452EC2"/>
<path d="M45.0054 44.8V51.2H51.4054V44.8H45.0054Z" fill="#452EC2"/>
<path d="M45.0054 44.8V38.4H38.6054V44.8H45.0054Z" fill="#452EC2"/>
<path fill-rule="evenodd" clip-rule="evenodd" d="M0.205444 0V64H64.2054V0H0.205444ZM51.4054 6.4H13.0054V12.8H6.60544V51.2H13.0054V57.6H51.4054V51.2H57.8054V12.8H51.4054V6.4Z" fill="#452EC2"/>
</svg>
